<svg xmlns="http://www.w3.org/2000/svg" xmlns:xlink="http://www.w3.org/1999/xlink" width="48" height="48" viewBox="0 0 48 48">
  <defs>
    <clipPath id="clip-path">
      <rect id="_-mask-" data-name="-mask-" width="48" height="48" transform="translate(-23385 -11896.666)" fill="rgba(0,0,0,0)" stroke="rgba(0,0,0,0)" stroke-width="1"/>
    </clipPath>
  </defs>
  <g id="_-mask-蒙版组_4" data-name="-mask-蒙版组 4" transform="translate(23385 11896.666)" clip-path="url(#clip-path)">
    <g id="组_228" data-name="组 228" transform="translate(-23848.271 -12066.049)">
      <path id="路径_74" data-name="路径 74" d="M553.04,302.224v5.481h-7.859v-20.93c.131.125.239.217.334.322q10.083,11.153,20.17,22.3a.56.56,0,0,1,.085.78q-1.847,3.3-3.654,6.617a.646.646,0,0,1-.662.381q-12.129-.013-24.258-.018a.769.769,0,0,1-.586-.276c-1.3-2.361-2.579-4.737-3.859-7.111a1.954,1.954,0,0,1-.094-.26h26.465l-5.965-7.327Z" transform="translate(-62.065 -102.46)" fill="#13276f"/>
      <path id="路径_75" data-name="路径 75" d="M564.529,179.76H537.46c.222.243.341.38.467.51,1.414,1.464,2.833,2.923,4.239,4.395a.9.9,0,0,1,.274.532c.019,2.191.012,4.381.012,6.68-.164-.159-.273-.251-.368-.357q-5.1-5.661-10.213-11.319a.564.564,0,0,1-.1-.778q1.878-3.461,3.708-6.95a.666.666,0,0,1,.685-.426q11.837.017,23.674.02a.721.721,0,0,1,.546.257c1.359,2.369,2.694,4.753,4.033,7.135A2.825,2.825,0,0,1,564.529,179.76Z" transform="translate(-61.174 0)" fill="#13276f"/>
      <path id="路径_76" data-name="路径 76" d="M469.326,264.288c1.878,2.215,3.73,4.407,5.6,6.587.2.237.124.4,0,.609-.9,1.507-1.793,3.021-2.708,4.52a.7.7,0,0,0-.011.817q2.875,5.1,5.724,10.219c.094.168.183.34.307.57-.2.016-.346.039-.493.039-2.567,0-5.134-.011-7.7,0a.677.677,0,0,1-.693-.423c-1.988-3.707-3.995-7.4-5.982-11.111a.772.772,0,0,1-.046-.614q2.933-5.556,5.9-11.093A.944.944,0,0,1,469.326,264.288Z" transform="translate(0 -82.378)" fill="#13276f"/>
      <path id="路径_77" data-name="路径 77" d="M784.774,290.232c-1.537-1.854-3.029-3.652-4.518-5.453-.932-1.128-.93-1.13-.262-2.414.614-1.181,1.215-2.369,1.852-3.537a.794.794,0,0,0-.014-.877q-2.778-5.033-5.528-10.082c-.1-.182-.19-.368-.313-.608.216-.011.367-.025.517-.025,2.514,0,5.028.006,7.541-.009a.729.729,0,0,1,.743.431q3.024,5.414,6.083,10.808a.639.639,0,0,1,.029.723q-2.989,5.373-5.951,10.76C784.911,290.027,784.859,290.1,784.774,290.232Z" transform="translate(-279.732 -85.003)" fill="#13276f"/>
      <path id="路径_78" data-name="路径 78" d="M649.243,269.418h1.583q3.295,0,6.59,0c.276,0,.518-.026.516.392-.012,2.761-.007,5.522-.01,8.283a1.364,1.364,0,0,1-.07.265Z" transform="translate(-166.354 -86.957)" fill="#13276f"/>
    </g>
  </g>
</svg>
