<svg xmlns="http://www.w3.org/2000/svg" width="32" height="28.2" viewBox="0 0 32 28.2"><defs><style>.a{fill:#7c7c7c;stroke:#7c7c7c;stroke-width:0.2px;}.b{fill:none;}.c{stroke:none;}</style></defs><g transform="translate(-1445 -21.899)"><g transform="translate(34 -0.001)"><path class="a" d="M214.3,0V7h2V1.753h12V7h2V0Zm4,3.5h3.028v1.75h-3.028Zm4.968,0h3.028v1.75h-3.028ZM230.374,7h-16.16a1.812,1.812,0,0,0-1.92,1.68V26.323a1.812,1.812,0,0,0,1.92,1.68h16.16a1.812,1.812,0,0,0,1.92-1.68V8.684A1.812,1.812,0,0,0,230.374,7ZM230.3,26.253h-16V8.754h16v17.5Z" transform="translate(1204.707 21.997)"/><g class="a" transform="translate(1422 44)"><rect class="c" width="10" height="2"/><rect class="b" x="0.1" y="0.1" width="9.8" height="1.8"/></g></g><rect class="b" width="32" height="28" transform="translate(1445 22)"/></g></svg>