<svg xmlns="http://www.w3.org/2000/svg" xmlns:xlink="http://www.w3.org/1999/xlink" width="32" height="28" viewBox="0 0 32 28"><defs><style>.a{fill:rgba(0,0,0,0);stroke:rgba(0,0,0,0);}.b{clip-path:url(#a);}.c{fill:#7c7c7c;}</style><clipPath id="a"><rect class="a" width="32" height="28" transform="translate(1477 22)"/></clipPath></defs><g class="b" transform="translate(-1477 -22)"><path class="c" d="M72.276,150.63l3.336-3.185a2.706,2.706,0,0,1,2.893-.652,2.365,2.365,0,0,1,1.5,2.236v14.5a2.362,2.362,0,0,1-1.5,2.234,2.333,2.333,0,0,1-.91.155,2.84,2.84,0,0,1-1.983-.838l-3.336-3.165v1.611a4.456,4.456,0,0,1-1.327,3.168,4.559,4.559,0,0,1-3.2,1.312H52.532a4.56,4.56,0,0,1-3.206-1.312A4.459,4.459,0,0,1,48,163.52V148.48a4.453,4.453,0,0,1,1.327-3.168,4.555,4.555,0,0,1,3.2-1.312H67.744a4.557,4.557,0,0,1,3.2,1.312,4.453,4.453,0,0,1,1.327,3.168Zm0,3.167v4.957l4.994,4.739a.515.515,0,0,0,.357.186c.033,0,.065-.062.065-.186V149.028c0-.124-.033-.186-.065-.186a.468.468,0,0,0-.357.186Zm-19.743-7.573a2.247,2.247,0,0,0-2.25,2.225v15.04a2.247,2.247,0,0,0,2.25,2.224H67.744a2.246,2.246,0,0,0,2.25-2.224V148.48a2.247,2.247,0,0,0-2.25-2.225H52.532v-.031Zm11.236,10.907-4.952,3.1a1.158,1.158,0,0,1-1.131.049,1.037,1.037,0,0,1-.581-.919v-6.2a1.037,1.037,0,0,1,.581-.919,1.158,1.158,0,0,1,1.131.049l4.952,3.1a1.013,1.013,0,0,1,0,1.741Z" transform="translate(1429 -120)"/></g></svg>