<?xml version="1.0" standalone="no"?><!DOCTYPE svg PUBLIC "-//W3C//DTD SVG 1.1//EN" "http://www.w3.org/Graphics/SVG/1.1/DTD/svg11.dtd"><svg t="1680243516260" class="icon" viewBox="0 0 1024 1024" version="1.1" xmlns="http://www.w3.org/2000/svg" p-id="1115" xmlns:xlink="http://www.w3.org/1999/xlink" width="16" height="16"><path d="M16.94024651 719.12612386v-62.50030816c0-12.63469394 1.81235317-25.165824 5.43706073-37.17913956L162.29100445 153.15399111A77.6722963 77.6722963 0 0 1 236.7010643 97.74775349h544.32745245a77.6722963 77.6722963 0 0 1 74.41005985 55.40623762l139.91369599 466.29268503c3.62470756 12.01331556 5.43706075 24.54444563 5.43706074 37.17913956V848.57995022a77.6722963 77.6722963 0 0 1-77.6722963 77.67229629h-828.50449422A77.6722963 77.6722963 0 0 1 16.94024651 848.57995022V719.12612386z m77.6722963-103.56306254h828.50449422c6.05843911 0 11.90975169 0.67316031 17.6057209 2.0194797l-134.8908883-449.56725096A25.89076502 25.89076502 0 0 0 781.02851675 149.52928355H236.7010643a25.89076502 25.89076502 0 0 0-24.85513481 18.48600651L77.00682311 617.58254102c5.69596799-1.34631939 11.54728178-2.0194797 17.6057197-2.0194797zM68.72177777 745.01688889v103.56306133a25.89076502 25.89076502 0 0 0 25.89076504 25.89076623h828.50449422a25.89076502 25.89076502 0 0 0 25.89076503-25.89076623v-155.3445926a25.89076502 25.89076502 0 0 0-25.89076503-25.89076503h-828.50449422a25.89076502 25.89076502 0 0 0-25.89076504 25.89076503v51.78153127zM198.17560533 822.68918518a25.89076502 25.89076502 0 1 1 0-51.78153126h621.37837038a25.89076502 25.89076502 0 1 1 0 51.78153126h-621.37837038z" fill="#000000" p-id="1116"></path></svg>