<svg xmlns="http://www.w3.org/2000/svg" width="141" height="35" viewBox="0 0 141 35"><defs><style>.a,.d{fill:#202225;}.a{stroke:#fff;stroke-miterlimit:10;}.b,.c{fill:#fff;}.c{font-size:23px;font-family:SegoeUI, Segoe UI;}</style></defs><g transform="translate(-612.5 -203.5)"><rect class="a" width="140" height="34" transform="translate(613 204)"/><rect class="b" width="71" height="34" transform="translate(613 204)"/><text class="c" transform="translate(692.582 229.217)"><tspan x="0" y="0">KVM</tspan></text><g transform="translate(621.452 209.361)"><g transform="translate(0)"><path class="d" d="M630.823,212.149v23.257h-6.048V212.149Z" transform="translate(-624.775 -211.661)"/><path class="d" d="M652.023,212.149l-3.47,10.5,3.8,12.756H646.1l-2.449-9.969v9.969h-6.048V212.149h6.048v9.036l2.693-9.036Z" transform="translate(-628.396 -211.661)"/><path class="d" d="M671.361,212.149l3.458,23.257h-6.181l-.325-4.18h-2.163l-.363,4.18h-6.253l3.086-23.257Zm-3.2,14.954q-.46-3.951-.921-9.768-.925,6.68-1.161,9.768Z" transform="translate(-634.585 -211.661)"/><path class="d" d="M695.9,219h-5.617v-1.723a3.38,3.38,0,0,0-.215-1.537.792.792,0,0,0-.718-.331.914.914,0,0,0-.826.446,2.586,2.586,0,0,0-.28,1.352,3.825,3.825,0,0,0,.315,1.754,4.556,4.556,0,0,0,1.708,1.422q4.039,2.4,5.087,3.933a9.019,9.019,0,0,1,1.049,4.956,8.7,8.7,0,0,1-.582,3.663,4.554,4.554,0,0,1-2.248,1.975,8.906,8.906,0,0,1-3.878.8,8.673,8.673,0,0,1-4.145-.919,4.51,4.51,0,0,1-2.248-2.341,12,12,0,0,1-.531-4.037v-1.522h5.617v2.83a3.724,3.724,0,0,0,.237,1.68.915.915,0,0,0,.84.374.985.985,0,0,0,.9-.474,2.708,2.708,0,0,0,.294-1.408,4.363,4.363,0,0,0-.561-2.686,17.778,17.778,0,0,0-2.83-2.112,27.956,27.956,0,0,1-2.987-2.169,5.076,5.076,0,0,1-1.214-1.868,8.218,8.218,0,0,1-.481-3.045,8.458,8.458,0,0,1,.682-3.908,4.6,4.6,0,0,1,2.205-1.932,8.81,8.81,0,0,1,3.678-.7,9.583,9.583,0,0,1,4.015.762,4.2,4.2,0,0,1,2.2,1.917,10.158,10.158,0,0,1,.539,3.929Z" transform="translate(-641.09 -211.469)"/></g></g></g></svg>