<svg xmlns="http://www.w3.org/2000/svg" xmlns:xlink="http://www.w3.org/1999/xlink" width="60" height="28" viewBox="0 0 60 28"><defs><style>.a{fill:rgba(0,0,0,0);stroke:rgba(0,0,0,0);}.b{clip-path:url(#a);}.c{fill:#7c7c7c;}</style><clipPath id="a"><rect class="a" width="60" height="28" transform="translate(218.002 221)"/></clipPath></defs><g class="b" transform="translate(-218.002 -221)"><path class="c" d="M1.26-11.365a12.411,12.411,0,0,1,1.31-5.841,9.306,9.306,0,0,1,3.574-3.822A9.836,9.836,0,0,1,11.2-22.35a9.836,9.836,0,0,1,5.055,1.322,9.4,9.4,0,0,1,3.588,3.822,12.3,12.3,0,0,1,1.324,5.841,12.366,12.366,0,0,1-1.324,5.871,9.4,9.4,0,0,1-3.588,3.822A9.836,9.836,0,0,1,11.2-.35,9.836,9.836,0,0,1,6.144-1.672,9.306,9.306,0,0,1,2.57-5.494,12.477,12.477,0,0,1,1.26-11.365Zm4.357,0a9.443,9.443,0,0,0,.7,3.749A5.73,5.73,0,0,0,8.279-5.1a4.966,4.966,0,0,0,2.919.886A4.966,4.966,0,0,0,14.117-5.1a5.73,5.73,0,0,0,1.965-2.514,9.443,9.443,0,0,0,.7-3.749,9.337,9.337,0,0,0-.7-3.734,5.741,5.741,0,0,0-1.965-2.5,4.966,4.966,0,0,0-2.919-.886,4.966,4.966,0,0,0-2.919.886,5.741,5.741,0,0,0-1.965,2.5A9.337,9.337,0,0,0,5.617-11.365Zm27.85,7.149a4.25,4.25,0,0,0,2.606-.814A5.626,5.626,0,0,0,37.824-7.3l3.446,2.034A7.07,7.07,0,0,1,38.45-1.73a8.562,8.562,0,0,1-4.9,1.38,9.616,9.616,0,0,1-5.04-1.366A9.748,9.748,0,0,1,24.9-5.6a12.088,12.088,0,0,1-1.338-5.769,12.108,12.108,0,0,1,1.324-5.754A9.64,9.64,0,0,1,28.5-20.984a9.69,9.69,0,0,1,5.055-1.366,8.562,8.562,0,0,1,4.9,1.38,7.07,7.07,0,0,1,2.819,3.531L37.824-15.4a5.626,5.626,0,0,0-1.751-2.267,4.25,4.25,0,0,0-2.606-.814,4.866,4.866,0,0,0-2.848.872,5.875,5.875,0,0,0-1.979,2.485,9.094,9.094,0,0,0-.726,3.764,9.2,9.2,0,0,0,.726,3.778,5.862,5.862,0,0,0,1.979,2.5A4.866,4.866,0,0,0,33.467-4.215ZM61.26-.7,56.334-.728,51.265-8.371H48.075V-.7H43.946V-21.972h7.2a10.284,10.284,0,0,1,4.3.843,6.461,6.461,0,0,1,2.848,2.4,6.453,6.453,0,0,1,1,3.56A6.3,6.3,0,0,1,58.27-11.6a6.5,6.5,0,0,1-2.876,2.354ZM48.075-18.4v6.452h2.591a5.392,5.392,0,0,0,3.033-.8,2.71,2.71,0,0,0,1.21-2.427,2.712,2.712,0,0,0-1.2-2.441,5.452,5.452,0,0,0-3.047-.785Z" transform="translate(216.742 246.35)"/></g></svg>