<?xml version="1.0" standalone="no"?><!DOCTYPE svg PUBLIC "-//W3C//DTD SVG 1.1//EN" "http://www.w3.org/Graphics/SVG/1.1/DTD/svg11.dtd"><svg t="1687171635846" class="icon" viewBox="0 0 1024 1024" version="1.1" xmlns="http://www.w3.org/2000/svg" p-id="1345" xmlns:xlink="http://www.w3.org/1999/xlink" width="16" height="16"><path d="M580.8 631.2l132.8 285.6c7.2 16 0.8 35.2-15.2 42.4l-116 54.4c-16 7.2-35.2 0.8-42.4-15.2l-136-292-167.2 167.2c-12.8 12.8-32.8 12.8-45.6 0-6.4-6.4-9.6-14.4-9.6-22.4V40c0-17.6 14.4-32 32-32 8 0 16 3.2 21.6 8l595.2 541.6c12.8 12 14.4 32 2.4 44.8-5.6 6.4-12.8 9.6-21.6 10.4l-230.4 18.4z" fill="#ffffff" p-id="1346"></path></svg>